<?xml version="1.0" encoding="UTF-8" standalone="no"?><!DOCTYPE svg PUBLIC "-//W3C//DTD SVG 1.1//EN" "http://www.w3.org/Graphics/SVG/1.1/DTD/svg11.dtd"><svg width="100%" height="100%" viewBox="0 0 731 590" version="1.1" xmlns="http://www.w3.org/2000/svg" xmlns:xlink="http://www.w3.org/1999/xlink" xml:space="preserve" xmlns:serif="http://www.serif.com/" style="fill-rule:evenodd;clip-rule:evenodd;stroke-linejoin:round;stroke-miterlimit:2;"><path d="M646.047,395.141l80.451,150.671c0,0 13.828,36.516 -29.297,43.368c-1.987,0.316 -107.888,-0 -107.888,-0c-0,-0 -22.787,3.601 -39.063,-23.836c-16.277,-27.437 -30.013,-65.105 -43.249,-71.616c-1.252,-0.615 -183.689,-1.86 -183.689,-1.86l45.299,-105.087l170.72,-0.271l25,24.286c-0,-0 3.274,7.352 -3.81,12.619c-4.871,3.622 -44.301,36.412 -44.301,36.412l42.28,46.178l72.62,-1.667l-25.794,-22.62c0,0 -5.527,-4.684 -14.199,-4.302c-0.252,0.011 -11.385,-4.243 -12.312,-8.29c-0.306,-1.336 -3.669,-7.837 8.655,-16.701c3.029,-2.179 39.686,-29.746 39.686,-29.746c0,-0 3.433,-1.951 -0.078,-7.412c-3.511,-5.462 -11.313,-20.052 -11.313,-20.052l30.282,-0.074Zm-269.739,-395.021c0.377,-0.062 0.578,-0.084 0.578,-0.084c0,-0 -0.3,0.033 -0.578,0.084c-4.163,0.665 -29.727,5.935 -42.28,36.226c-13.69,33.036 -91.895,190.088 -91.895,190.088c-0,0 -28.206,70.854 -124.562,92.06c-33.214,7.31 -81.846,10.789 -101.936,-6.697c-7.659,-6.666 -23.996,-3.906 -10.417,9.673c2.046,2.046 33.111,36.831 68.454,47.992c46.294,14.619 89.287,13.021 89.287,13.021l-76.679,156.45c-0,-0 -13.021,24.926 -0.372,38.319c12.649,13.393 33.111,12.277 46.504,11.533c13.393,-0.744 85.938,-0 85.938,-0c0,-0 18.602,2.232 31.251,-22.322c12.649,-24.554 160.171,-365.601 160.171,-365.601l28.984,58.78c0,-0 1.951,5.364 -1.463,5.73c-3.413,0.365 -16.335,0.853 -16.335,0.853c-0,-0 -1.097,1.219 -2.682,4.998c-1.585,3.779 -18.164,40.595 -18.164,40.595c-0,-0 35.475,-1.829 47.056,-7.68c11.581,-5.852 52.42,-30.964 75.46,-33.768c23.04,-2.804 47.879,-0.709 84.451,14.148c36.572,14.858 86.667,29.724 86.667,29.724c0,0 9.143,4.944 6.096,15.801c-3.048,10.857 -16.381,3.429 -17.334,3.048c-0.952,-0.381 -62.477,-21.525 -62.477,-21.525c0,0 -11.98,-3.202 -18.347,1.701c-1.945,1.499 -7.444,5.292 -4.762,11.631c0.468,1.106 16.336,6.583 28.283,10.118c11.946,3.536 63.78,25.822 83.208,19.917c6.823,-2.074 18.667,-9.951 21.905,-40.691c2.498,-23.709 -15.238,-42.929 -29.524,-49.787c-14.286,-6.857 -135.002,-54.715 -135.002,-54.715l-93.666,-182.025c-0,-0 -11.31,-28.87 -58.632,-27.679c-39.396,0.991 -38.569,0.332 -37.186,0.084Zm231.925,244.036c6.36,0 11.524,5.164 11.524,11.524c-0,6.361 -5.164,11.524 -11.524,11.524c-6.36,0 -11.524,-5.163 -11.524,-11.524c-0,-6.36 5.164,-11.524 11.524,-11.524Z" style="fill:url(#_Linear1);"/><defs><linearGradient id="_Linear1" x1="0" y1="0" x2="1" y2="0" gradientUnits="userSpaceOnUse" gradientTransform="matrix(8.28698,-420.86,420.86,8.28698,392.807,508.856)"><stop offset="0" style="stop-color:#012746;stop-opacity:1"/><stop offset="1" style="stop-color:#007eba;stop-opacity:1"/></linearGradient></defs></svg>